<svg width="24" height="24" viewBox="0 0 24 24" fill="none" xmlns="http://www.w3.org/2000/svg">
<path d="M11.8333 12.5C12.2936 12.5 12.6667 12.1269 12.6667 11.6667C12.6667 11.2064 12.2936 10.8333 11.8333 10.8333C11.3731 10.8333 11 11.2064 11 11.6667C11 12.1269 11.3731 12.5 11.8333 12.5Z" stroke="white" stroke-width="1.66667" stroke-linecap="round" stroke-linejoin="round"/>
<path d="M11.8333 6.66667C12.2936 6.66667 12.6667 6.29357 12.6667 5.83333C12.6667 5.3731 12.2936 5 11.8333 5C11.3731 5 11 5.3731 11 5.83333C11 6.29357 11.3731 6.66667 11.8333 6.66667Z" stroke="white" stroke-width="1.66667" stroke-linecap="round" stroke-linejoin="round"/>
<path d="M11.8333 18.3333C12.2936 18.3333 12.6667 17.9602 12.6667 17.5C12.6667 17.0398 12.2936 16.6667 11.8333 16.6667C11.3731 16.6667 11 17.0398 11 17.5C11 17.9602 11.3731 18.3333 11.8333 18.3333Z" stroke="white" stroke-width="1.66667" stroke-linecap="round" stroke-linejoin="round"/>
</svg>
